<svg xmlns="http://www.w3.org/2000/svg" xmlns:xlink="http://www.w3.org/1999/xlink" version="1.1" x="0px" y="0px" viewBox="0 0 50 50" style="enable-background:new 0 0 50 50;" xml:space="preserve" width="50px" height="50px">
<path d="M36.998,11.518C35.683,10.377,34.309,10,33,10c-3.438,0-5.195,3.074-5.561,3.439c-0.586,0.586-0.586,1.536,0,2.121  c0.586,0.586,1.536,0.586,2.121,0C29.973,15.149,31.313,12,34,12c0.886,0,1.883,0.261,2.997,0.804  C37.627,13.111,37.688,12.116,36.998,11.518z"/>
<path d="M29,20.198c0,1.543,2.094,0.399,3.597,0.399S36,21.861,36,19.866c0-2.012-1.997-2.86-3.5-2.86  C30.997,17.006,29,18.655,29,20.198z"/>
<path d="M13.002,11.518C14.316,10.377,15.691,10,17,10c3.438,0,5.195,3.074,5.561,3.439c0.586,0.586,0.586,1.536,0,2.121  c-0.586,0.586-1.536,0.586-2.121,0C20.027,15.149,18.688,12,16,12c-0.886,0-1.883,0.261-2.997,0.804  C12.373,13.111,12.312,12.116,13.002,11.518z"/>
<path d="M21,20.198c0,1.543-2.094,0.399-3.597,0.399c-1.503,0-3.403,1.264-3.403-0.732c0-2.012,1.997-2.86,3.5-2.86  S21,18.655,21,20.198z"/>
<path d="M29.954,29.307c0.484,0.36,1.103,0.935,1.491,1.297c1.31,1.217,2.546,2.367,4.055,2.367c1.805,0,3.409-0.874,4.413-2.22  c-0.357,1.638-1.766,3.263-3.34,3.715C34.77,34.983,33.966,35,30,35H20c-3.966,0-4.77-0.017-6.572-0.535  c-1.575-0.453-2.983-2.078-3.34-3.715c1.003,1.347,2.608,2.22,4.413,2.22c1.508,0,2.745-1.15,4.055-2.367  c0.388-0.361,1.007-0.936,1.491-1.297c0.533,0.343,1.135,0.573,1.765,0.668c0.711,0.65,1.82,1.014,3.189,1.014  s2.478-0.364,3.189-1.014C28.819,29.88,29.421,29.65,29.954,29.307 M37,25c1.276,0.686,2,1.545,2,2.47c0,1.933-1.567,3.5-3.5,3.5  c-1.518,0-4.089-3.944-5.961-3.971c-0.455,0.619-1.182,1.025-2.009,1.025c-0.135,0-0.433,0.102-0.5,0.177  c-0.148,0.525-1.089,0.787-2.029,0.787s-1.881-0.262-2.029-0.787c-0.067-0.075-0.365-0.177-0.5-0.177  c-0.827,0-1.554-0.406-2.009-1.025c-1.872,0.026-4.443,3.971-5.961,3.971c-1.933,0-3.5-1.567-3.5-3.5c0-0.925,0.954-1.872,2-2.47  c-2.577,0-5,2.569-5,4.97c0,2.761,2.221,5.654,4.875,6.417C14.953,36.985,15.994,37,20,37c0,0,10,0,10,0  c4.006,0,5.047-0.015,7.125-0.613C39.779,35.624,42,32.732,42,29.97C42,27.569,39.5,25,37,25L37,25z"/>
<path d="M44.2,22c-0.767,0-1.774-0.509-3.15-1.33c-0.126-0.075-0.221-0.133-0.273-0.161C39.743,20.123,39,19.016,39,17.786  c0-0.448,0.101-0.887,0.289-1.286C39.101,16.101,39,15.662,39,15.214c0-1.229,0.742-2.336,1.847-2.754c-0.001,0-0.002,0-0.002,0  c-0.012,0,0.082-0.057,0.205-0.13C42.426,11.509,43.434,11,44.2,11c1.544,0,2.8,1.314,2.8,2.929c0,0.448-0.101,0.887-0.289,1.286  C46.899,15.613,47,16.052,47,16.5s-0.101,0.887-0.289,1.286C46.899,18.185,47,18.624,47,19.071C47,20.686,45.744,22,44.2,22z   M44.2,13c-0.188,0.014-0.717,0.207-2.126,1.047c-0.269,0.16-0.461,0.261-0.521,0.283C41.223,14.456,41,14.811,41,15.214  c0,0.302,0.126,0.516,0.232,0.643l0.54,0.643l-0.54,0.643C41.126,17.27,41,17.483,41,17.786c0,0.403,0.224,0.759,0.556,0.884  c0.059,0.022,0.252,0.123,0.52,0.283c1.408,0.841,1.938,1.034,2.133,1.047C44.642,20,45,19.583,45,19.071  c0-0.302-0.126-0.516-0.232-0.643l-0.54-0.643l0.54-0.643C44.874,17.016,45,16.802,45,16.5s-0.126-0.516-0.232-0.643l-0.54-0.643  l0.54-0.643C44.874,14.445,45,14.231,45,13.929C45,13.417,44.642,13,44.2,13z"/>
<path d="M44.2,21c-0.456,0-1.253-0.398-1.915-0.769l-0.099,0.3l0.387,0.748C42.856,21.827,43,22.406,43,23   c0,1.13-0.497,2.175-1.4,2.943c-0.414,0.352-0.936,1.162-1.353,1.973C40.704,28.552,41,29.271,41,29.97   c0,1.801-1.16,3.703-2.735,4.767c-1.391,3.893-3.047,5.045-3.877,5.618c-0.341,0.236-0.7,0.449-1.047,0.654   c-1.239,0.733-2.929,1.734-2.972,3.906C30.137,45.322,28.913,46,28,46h-4.053H22c-0.913,0-2.137-0.678-2.369-1.085   c-0.043-2.172-1.733-3.172-2.972-3.906c-0.347-0.205-0.706-0.418-1.047-0.654c-0.829-0.574-2.486-1.725-3.877-5.618   C10.16,33.673,9,31.77,9,29.97c0-0.713,0.291-1.436,0.744-2.071c-0.415-0.805-0.932-1.607-1.344-1.956C7.497,25.175,7,24.13,7,23   c0-0.594,0.144-1.173,0.427-1.721l0.387-0.748l-0.099-0.3C7.053,20.602,6.256,21,5.8,21c-0.142,0-0.279-0.022-0.411-0.055   C5.14,21.586,5,22.277,5,23c0,1.776,0.814,3.369,2.106,4.467C7.439,27.75,8.365,29.432,8.467,30c1.58,8.863,4.574,11.009,6.007,12   c1.603,1.109,3.158,1.548,3.158,3c0,1.65,2.632,3,4.368,3h1.947H28c1.737,0,4.368-1.35,4.368-3c0-1.452,1.555-1.891,3.158-3   c1.433-0.992,4.427-3.137,6.007-12c0.101-0.568,1.028-2.25,1.361-2.533C44.186,26.369,45,24.776,45,23   c0-0.723-0.14-1.414-0.389-2.055C44.479,20.978,44.342,21,44.2,21z"/>
<path d="M7.715,12.769C9.88,7.136,16.802,3,25,3s15.12,4.136,17.285,9.769c0.637-0.358,1.392-0.731,1.855-0.76   C41.655,5.64,34.03,1,25,1S8.345,5.64,5.86,12.009C6.323,12.038,7.078,12.411,7.715,12.769z"/>
<path d="M5.8,22C4.256,22,3,20.686,3,19.071c0-0.448,0.1-0.887,0.289-1.286C3.1,17.387,3,16.948,3,16.5s0.1-0.887,0.289-1.286  C3.1,14.815,3,14.376,3,13.929C3,12.314,4.256,11,5.8,11c0.767,0,1.774,0.509,3.15,1.33c0.126,0.076,0.222,0.134,0.275,0.162  C10.258,12.877,11,13.984,11,15.214c0,0.448-0.1,0.887-0.289,1.286C10.9,16.899,11,17.338,11,17.786c0,1.23-0.743,2.337-1.848,2.755  c0.006-0.005-0.077,0.054-0.206,0.131C7.572,21.492,6.566,22,5.8,22z M5.792,13C5.359,13,5,13.417,5,13.929  c0,0.302,0.126,0.516,0.232,0.642l0.542,0.644l-0.542,0.644C5.126,15.984,5,16.198,5,16.5s0.126,0.516,0.232,0.642l0.542,0.644  L5.232,18.43C5.126,18.556,5,18.769,5,19.071C5,19.583,5.359,20,5.8,20c0.187-0.014,0.715-0.207,2.123-1.046  c0.27-0.161,0.465-0.263,0.525-0.285C8.777,18.544,9,18.189,9,17.786c0-0.302-0.126-0.516-0.232-0.642L8.226,16.5l0.542-0.644  C8.874,15.73,9,15.517,9,15.214c0-0.403-0.223-0.759-0.555-0.884c-0.059-0.022-0.252-0.124-0.52-0.283  C6.516,13.207,5.987,13.014,5.792,13z"/>
</svg>
